HIERARCHY
ROOT Hips
{
    OFFSET 0.000000 0.000000 0.000000
    CHANNELS 6 Xposition Yposition Zposition Zrotation Xrotation Yrotation
        JOINT Chest
        {
            OFFSET -0.000000 31.804140 -0.000000
            CHANNELS 3 Zrotation Xrotation Yrotation
            JOINT Neck
            {
                OFFSET -0.000000 23.903318 0.000000
                CHANNELS 3 Zrotation Xrotation Yrotation
                JOINT Head
                {
                    OFFSET -0.000000 10.511110 0.000000
                    CHANNELS 3 Zrotation Xrotation Yrotation
                    End Site
                    {
                        OFFSET -0.000000 16.244448 0.000000
                    }
                }
            }
            JOINT LeftCollar
            {
                OFFSET -0.000000 23.903318 0.000000
                CHANNELS 3 Zrotation Xrotation Yrotation
                JOINT LeftShoulder
                {
                    OFFSET 20.500000 -0.000000 0.000000
                    CHANNELS 3 Zrotation Xrotation Yrotation
                    JOINT LeftElbow
                    {
                        OFFSET 20.922438 0.000000 0.000000
                        CHANNELS 3 Zrotation Xrotation Yrotation
                        JOINT LeftWrist
                        {
                            OFFSET 26.373112 0.000000 0.000000
                            CHANNELS 3 Zrotation Xrotation Yrotation
                            End Site
                            {
                                OFFSET 0.000000 -14.333333 0.000000
                            }
                        }
                    }
                }
            }
            JOINT RightCollar
            {
                OFFSET -0.000000 23.903318 0.000000
                CHANNELS 3 Zrotation Xrotation Yrotation
                JOINT RightShoulder
                {
                    OFFSET -20.500000 0.000000 0.000000
                    CHANNELS 3 Zrotation Xrotation Yrotation
                    JOINT RightElbow
                    {
                        OFFSET -20.922438 0.000000 0.000000
                        CHANNELS 3 Zrotation Xrotation Yrotation
                        JOINT RightWrist
                        {
                            OFFSET -26.373112 0.000000 0.000000
                            CHANNELS 3 Zrotation Xrotation Yrotation
                            End Site
                            {
                                OFFSET -0.000000 -14.333333 0.000000
                            }
                        }
                    }
                }
            }
        }
    JOINT LeftHip
    {
        OFFSET 11.466667 0.000000 0.000000
        CHANNELS 3 Zrotation Xrotation Yrotation
        JOINT LeftKnee
        {
            OFFSET -0.000000 -37.458855 0.000000
            CHANNELS 3 Zrotation Xrotation Yrotation
            JOINT LeftAnkle
            {
                OFFSET -0.000000 -39.235966 0.000000
                CHANNELS 3 Zrotation Xrotation Yrotation
                End Site
                {
                    OFFSET -0.000000 -4.777778 16.244448
                }
            }
        }
    }
    JOINT RightHip
    {
        OFFSET -11.466667 0.000000 0.000000
        CHANNELS 3 Zrotation Xrotation Yrotation
        JOINT RightKnee
        {
            OFFSET -0.000000 -37.458855 0.000000
            CHANNELS 3 Zrotation Xrotation Yrotation
            JOINT RightAnkle
            {
                OFFSET -0.000000 -39.235966 0.000000
                CHANNELS 3 Zrotation Xrotation Yrotation
                End Site
                {
                    OFFSET -0.000000 -4.777778 16.244448
                }
            }
        }
    }
}
MOTION
Frames:    10
Frame Time:    0.010000
-42.673416    84.842957    -104.501106    1.488869    -5.154727    41.411846    -1.397163    26.268717    7.799553    -14.670998    15.647455    -18.950743    27.047514    -21.163898    -15.833783    -11.307095    -0.311206    3.148660    -59.637726    -3.698874    9.850618    1.990168    -1.076816    -57.597309    115.863579    -12.924273    10.401138    17.472721    2.536400    16.051493    30.074841    26.022230    29.616756    -11.531488    -3.322198    32.792744    -86.732086    12.024451    14.720913    21.361923    -4.400637    -7.956073    -17.422991    34.393379    26.610010    -15.942596    2.482592    16.660696    -2.003478    -7.951450    -8.607431    3.258049    34.088825    -22.244442    4.451267    -12.322688    -10.882658    
-42.861568    84.572914    -103.865692    1.811371    -5.320560    41.128269    -1.496953    26.430252    7.839197    -14.625695    15.834373    -18.963631    27.006618    -21.521547    -15.782560    -11.316109    -0.277384    3.125844    -59.584518    -2.515286    8.958515    2.116998    -1.219680    -59.880550    116.017029    -13.001570    10.820470    17.666029    2.523257    15.788097    30.318710    26.246952    29.055258    -11.516854    -3.433335    33.907558    -86.435127    11.665433    14.607231    21.889952    -5.030683    -7.912064    -18.460255    36.096050    27.442549    -15.605515    3.434123    16.535234    -1.706154    -7.529521    -9.552438    2.544966    34.613705    -21.465464    4.250417    -13.311044    -10.853828    
-43.049866    84.330925    -103.248070    2.087229    -5.472784    40.819668    -1.606678    26.537144    7.868084    -14.655838    16.002840    -18.937435    27.058844    -21.789577    -15.701978    -11.298268    -0.304422    3.165413    -59.467564    -1.153445    8.050561    2.272683    -1.392384    -62.083302    116.449867    -12.915689    11.412292    17.906551    2.513846    15.579615    30.648048    26.406960    28.376703    -11.464515    -3.537388    35.087513    -86.314903    11.339551    14.825682    22.403225    -5.771755    -7.790583    -19.539158    37.830498    28.364389    -15.004256    4.522518    16.371807    -1.478800    -7.168870    -10.360508    1.891572    35.195538    -20.428581    4.155003    -14.283913    -10.827067    
-43.234562    84.130630    -102.649704    2.310260    -5.608160    40.487885    -1.719284    26.576286    7.875469    -14.753869    16.151663    -18.867035    27.191187    -21.976484    -15.586970    -11.256015    -0.330074    3.252851    -59.278309    0.264998    7.107569    2.379841    -1.515911    -64.055122    117.092537    -12.722717    12.071701    18.175350    2.530227    15.409005    31.074139    26.507685    27.600304    -11.335490    -3.604575    36.326084    -86.422981    11.053450    15.421453    22.879995    -6.602653    -7.611901    -20.643480    39.545815    29.378452    -14.193567    5.679769    16.175926    -1.317164    -6.861460    -10.962253    1.395770    35.773331    -19.307510    4.085400    -15.165232    -10.806484    
-43.412106    83.984421    -102.070618    2.478767    -5.724150    40.139259    -1.829669    26.541756    7.850855    -14.907967    16.276649    -18.750761    27.389881    -22.091246    -15.433990    -11.187108    -0.365717    3.371156    -59.025967    1.688455    6.151288    2.457915    -1.578503    -65.878326    117.851517    -12.369414    12.747711    18.465353    2.544795    15.255604    31.571671    26.621475    26.756672    -11.178288    -3.673390    37.633018    -86.768669    10.821741    16.346184    23.298279    -7.496259    -7.402590    -21.760544    41.185493    30.481798    -13.252454    6.810922    15.938995    -1.211246    -6.591152    -11.329906    1.123150    36.288372    -18.262754    3.979868    -15.890095    -10.781258    
-43.579338    83.902695    -101.509689    2.595101    -5.819688    39.782623    -1.935634    26.434479    7.784791    -15.102670    16.372643    -18.589663    27.641861    -22.143681    -15.242053    -11.094240    -0.332114    3.501461    -58.717728    2.999641    5.145055    2.378282    -1.543769    -67.464661    118.764023    -11.906199    13.339900    18.762417    2.560480    15.098763    32.136898    26.790106    25.867647    -10.984751    -3.733227    38.986828    -87.360916    10.628933    17.568438    23.638384    -8.421329    -7.189374    -22.878975    42.690811    31.660364    -12.258035    7.810594    15.633426    -1.143808    -6.336125    -11.471617    1.093997    36.685844    -17.409605    3.804581    -16.409655    -10.736638    
-43.733482    83.893311    -100.964905    2.665266    -5.895976    39.426861    -2.036136    26.263180    7.670728    -15.323597    16.428013    -18.385445    27.933689    -22.139059    -15.011471    -10.969273    -0.352357    3.630504    -58.391449    4.242437    4.186954    2.263283    -1.488329    -69.024002    119.591576    -11.289796    13.781866    19.056805    2.565495    14.922466    32.745270    27.070944    24.964197    -10.791701    -3.804737    40.369919    -88.174210    10.454078    18.998989    23.883656    -9.343137    -6.996555    -23.983671    44.003094    32.883743    -11.270933    8.583326    15.219448    -1.091074    -6.071710    -11.418282    1.282626    36.918816    -16.798950    3.552334    -16.694916    -10.669393    
-43.872261    83.961182    -100.433197    2.697153    -5.956837    39.078579    -2.130980    26.042015    7.506814    -15.550056    16.433680    -18.144476    28.246746    -22.085896    -14.745964    -10.816704    -0.362348    3.744173    -58.062405    5.316846    3.257807    2.039949    -1.295980    -70.364670    120.390877    -10.606673    14.050559    19.333696    2.573961    14.713065    33.386593    27.476440    24.072815    -10.599684    -3.876845    41.748928    -89.180130    10.258755    20.558712    24.022209    -10.223887    -6.842070    -25.049438    45.066071    34.096077    -10.337371    9.058190    14.662667    -1.023953    -5.773540    -11.210002    1.625674    36.951164    -16.421423    3.236500    -16.735300    -10.590894    
-43.993801    84.108078    -99.910400    2.699394    -6.008276    38.740421    -2.218183    25.791178    7.298537    -15.764680    16.372486    -17.872637    28.557970    -21.987679    -14.451611    -10.639891    -0.370456    3.839068    -57.763630    6.220816    2.359528    1.714450    -1.019974    -71.556938    121.120255    -9.872147    14.111161    19.583782    2.565281    14.463686    34.041683    28.032793    23.218615    -10.450218    -3.974178    43.105774    -90.320198    10.010521    22.132603    24.046963    -11.024830    -6.733943    -26.035950    45.830780    35.214100    -9.499602    9.196693    13.949287    -0.912350    -5.420501    -10.886437    2.038092    36.761864    -16.226725    2.884840    -16.535038    -10.521100    
-44.096344    84.332611    -99.391571    2.680917    -6.059219    38.411930    -2.294158    25.534515    7.056830    -15.944133    16.234972    -17.580982    28.840185    -21.852806    -14.137950    -10.444795    -0.377072    3.909241    -57.520115    6.957160    1.491323    1.294856    -0.663300    -72.584854    121.754997    -9.122623    13.960727    19.790092    2.547153    14.167649    34.719906    28.706741    22.413952    -10.320495    -4.071069    44.407272    -91.550148    9.666529    23.655697    23.955799    -11.708739    -6.671292    -26.889790    46.261108    36.136860    -8.802758    8.994248    13.092789    -0.730604    -4.995688    -10.484011    2.431447    36.348377    -16.147093    2.534723    -16.107885    -10.478436    
